<?xml version="1.0" encoding="utf-8"?>
<!-- Generator: Adobe Illustrator 16.0.4, SVG Export Plug-In . SVG Version: 6.00 Build 0)  -->
<!DOCTYPE svg PUBLIC "-//W3C//DTD SVG 1.1//EN" "http://www.w3.org/Graphics/SVG/1.1/DTD/svg11.dtd">
<svg version="1.1" id="Ebene_1" xmlns="http://www.w3.org/2000/svg" xmlns:xlink="http://www.w3.org/1999/xlink" x="0px" y="0px"
	 width="283.464px" height="100.236px" viewBox="0 0 283.464 100.236" enable-background="new 0 0 283.464 100.236"
	 xml:space="preserve">
<g>
	<g>
		<path fill="#FFFFFF" d="M1.771,65.116c0-1.689,1.409-2.956,2.956-2.956c1.549,0,2.957,1.267,2.957,2.956
			c0,1.69-1.408,2.956-2.957,2.956C3.18,68.072,1.771,66.806,1.771,65.116z M2.546,76.516H6.91v23.156H2.546V76.516z"/>
		<path fill="#FFFFFF" d="M14.23,76.516h4.293v3.732c1.478-2.814,4.434-4.294,7.953-4.294c5.066,0,8.867,3.237,8.867,9.502v14.216
			h-4.293V85.876c0-4.083-1.97-6.052-5.63-6.052c-4.152,0-6.897,2.604-6.897,7.036v12.812H14.23V76.516z"/>
		<path fill="#FFFFFF" d="M40.063,80.177v-3.661h3.026V62.089h4.292v14.427h5.771v3.661h-5.771v13.231
			c0,2.11,0.774,3.097,2.465,3.097c1.054,0,1.899-0.492,2.533-0.986l1.83,3.027c-1.056,0.986-2.745,1.689-4.855,1.689
			c-3.801,0-6.264-2.041-6.264-6.617V80.177H40.063z"/>
		<path fill="#FFFFFF" d="M69.977,96.576c3.59,0,5.7-1.267,7.249-3.027l2.675,2.604c-2.112,2.534-5.278,4.083-9.854,4.083
			c-7.53,0-12.668-5.209-12.668-12.104c0-6.97,5.419-12.177,12.176-12.177c7.39,0,11.895,5.771,11.753,13.724H61.884
			C62.517,93.973,65.473,96.576,69.977,96.576z M76.804,86.088c-0.563-3.659-2.886-6.474-7.249-6.474
			c-4.011,0-6.828,2.534-7.531,6.474H76.804z"/>
		<path fill="#FFFFFF" d="M87.013,76.516h4.292v3.873c1.479-3.028,4.083-4.435,6.758-4.435c1.618,0,2.604,0.282,3.659,0.914
			l-1.478,3.66c-0.774-0.422-1.619-0.632-2.886-0.632c-3.449,0-6.053,2.814-6.053,7.53v12.245h-4.292V76.516z"/>
		<path fill="#FFFFFF" d="M106.158,76.516h4.293v3.732c1.477-2.814,4.433-4.294,7.952-4.294c5.067,0,8.866,3.237,8.866,9.502v14.216
			h-4.292V85.876c0-4.083-1.971-6.052-5.631-6.052c-4.151,0-6.896,2.604-6.896,7.036v12.812h-4.293V76.516z"/>
		<path fill="#FFFFFF" d="M132.625,88.131c0-6.97,4.854-12.177,11.259-12.177c3.802,0,6.546,1.619,8.166,4.504v-3.942h4.293v23.156
			h-4.293v-3.941c-1.62,2.886-4.364,4.505-8.166,4.505C137.478,100.236,132.625,95.027,132.625,88.131z M152.188,88.131
			c0-4.927-2.956-8.376-7.46-8.376c-4.575,0-7.602,3.449-7.602,8.376c0,4.856,3.027,8.305,7.602,8.305
			C149.232,96.436,152.188,92.988,152.188,88.131z"/>
		<path fill="#FFFFFF" d="M161.765,80.177v-3.661h3.024V62.089h4.293v14.427h5.772v3.661h-5.772v13.231
			c0,2.11,0.775,3.097,2.465,3.097c1.057,0,1.899-0.492,2.534-0.986l1.83,3.027c-1.057,0.986-2.748,1.689-4.856,1.689
			c-3.803,0-6.266-2.041-6.266-6.617V80.177H161.765z"/>
		<path fill="#FFFFFF" d="M180.276,65.116c0-1.689,1.408-2.956,2.956-2.956c1.551,0,2.957,1.267,2.957,2.956
			c0,1.69-1.406,2.956-2.957,2.956C181.684,68.072,180.276,66.806,180.276,65.116z M181.051,76.516h4.364v23.156h-4.364V76.516z"/>
		<path fill="#FFFFFF" d="M191.259,88.131c0-6.97,5.419-12.177,12.315-12.177c6.827,0,12.245,5.207,12.245,12.177
			c0,6.896-5.418,12.104-12.245,12.104C196.678,100.236,191.259,95.027,191.259,88.131z M211.385,88.131
			c0-4.856-3.168-8.517-7.811-8.517c-4.646,0-7.814,3.66-7.814,8.517c0,4.784,3.169,8.444,7.814,8.444
			C208.217,96.576,211.385,92.916,211.385,88.131z"/>
		<path fill="#FFFFFF" d="M221.524,76.516h4.293v3.732c1.478-2.814,4.434-4.294,7.952-4.294c5.068,0,8.869,3.237,8.869,9.502v14.216
			h-4.293V85.876c0-4.083-1.971-6.052-5.632-6.052c-4.153,0-6.896,2.604-6.896,7.036v12.812h-4.293V76.516z"/>
		<path fill="#FFFFFF" d="M247.99,88.131c0-6.97,4.856-12.177,11.259-12.177c3.8,0,6.546,1.619,8.164,4.504v-3.942h4.293v23.156
			h-4.293v-3.941c-1.618,2.886-4.364,4.505-8.164,4.505C252.846,100.236,247.99,95.027,247.99,88.131z M267.555,88.131
			c0-4.927-2.956-8.376-7.462-8.376c-4.574,0-7.6,3.449-7.6,8.376c0,4.856,3.025,8.305,7.6,8.305
			C264.599,96.436,267.555,92.988,267.555,88.131z"/>
		<path fill="#FFFFFF" d="M279.102,49.703h4.362v49.969h-4.362V49.703z"/>
	</g>
	<g>
		<g>
			<path fill="#F59C00" d="M16.398,29.074h-1.83v10.134l0.774,7.109l6.193,1.125v2.534H0v-2.534l5.49-1.125l0.774-7.109V14.716
				L5.49,7.607L0,6.481V3.948h22.874c9.359,0,12.738,5.068,12.738,11.12C35.612,23.091,29.349,29.074,16.398,29.074z M17.103,7.325
				h-2.534v18.158c1.125,0.211,1.407,0.283,2.674,0.283c6.052,0,9.853-3.59,9.923-9.502C27.166,10.634,24.141,7.325,17.103,7.325z"
				/>
			<path fill="#F59C00" d="M110.715,7.607l-0.774,7.109v35.682h-8.023l-6.334-11.19l-17.454-27.8v27.8l0.774,7.109l5.49,1.125v2.534
				H68.276v-2.534l5.49-1.125l0.774-7.109V14.716l-0.774-7.109l-5.49-1.126V3.948h15.483l6.054,10.769l16.468,26.322V14.716
				l-0.773-7.109l-5.42-1.126V3.948h16.047v2.534L110.715,7.607z"/>
			<path fill="#F59C00" d="M134.721,51.103c-3.517,0-6.756-0.423-11.753-2.464l-0.634-11.049h4.083l1.407,7.46
				c2.253,1.125,4.575,2.041,7.46,2.041c6.194,0,10.277-2.957,10.277-7.883c0-5.137-5.561-7.46-10.699-9.431
				c-6.614-2.534-12.599-5.278-12.599-13.724c0-7.531,5.984-13.866,16.471-13.866c3.517,0,8.584,1.126,12.173,2.534l0.775,10.979
				h-4.081l-1.689-7.46c-1.9-1.337-5.068-2.181-7.319-2.181c-6.545,0-9.925,3.659-9.925,7.178c0,5.349,4.998,6.757,9.712,8.728
				c7.25,2.956,13.795,6.263,13.795,14.851C152.176,45.542,145.139,51.103,134.721,51.103z"/>
		</g>
		<g>
			<path fill="#F59C00" d="M51.373,0c-5.176,0-9.245,4.069-9.245,9.247c0,5.177,4.069,9.246,9.245,9.246
				c5.178,0,9.248-4.069,9.248-9.246C60.62,4.069,56.551,0,51.373,0z M47.676,10.171c-1.48,0-2.776-1.294-2.776-2.776
				c0-1.478,1.296-2.772,2.776-2.772c1.478,0,2.772,1.294,2.772,2.772C50.449,8.877,49.154,10.171,47.676,10.171z M49.524,49.929
				l1.848,1.849l1.851-1.849V20.341h-3.699V49.929z"/>
		</g>
	</g>
</g>
</svg>
